<mxfile host="app.diagrams.net" modified="2024-04-12T06:09:10.376Z" agent="Mozilla/5.0 (Macintosh; Intel Mac OS X 10_15_7) AppleWebKit/605.1.15 (KHTML, like Gecko) Version/16.5 Safari/605.1.15" version="24.2.3" etag="Zdo1IVBCnnFcBWOK0w1T" type="device" pages="6">
  <diagram id="yz7HEXJvK4F-3w6UdYOl" name="第 1 页">
    <mxGraphModel dx="1242" dy="750" grid="1" gridSize="10" guides="1" tooltips="1" connect="1" arrows="1" fold="1" page="1" pageScale="1" pageWidth="827" pageHeight="1169" math="0" shadow="0">
      <root>
        <mxCell id="0" />
        <mxCell id="1" parent="0" />
        <mxCell id="16" style="edgeStyle=none;html=1;exitX=1;exitY=0.5;exitDx=0;exitDy=0;exitPerimeter=0;endArrow=none;endFill=0;" parent="1" source="2" edge="1">
          <mxGeometry relative="1" as="geometry">
            <mxPoint x="420" y="90" as="targetPoint" />
          </mxGeometry>
        </mxCell>
        <mxCell id="2" value="" style="shape=xor;whiteSpace=wrap;html=1;direction=north;" parent="1" vertex="1">
          <mxGeometry x="380" y="130" width="80" height="60" as="geometry" />
        </mxCell>
        <mxCell id="5" style="edgeStyle=none;html=1;exitX=1;exitY=0.5;exitDx=0;exitDy=0;exitPerimeter=0;endArrow=none;endFill=0;" parent="1" source="3" edge="1">
          <mxGeometry relative="1" as="geometry">
            <mxPoint x="140" y="220" as="targetPoint" />
          </mxGeometry>
        </mxCell>
        <mxCell id="3" value="" style="shape=or;whiteSpace=wrap;html=1;direction=north;" parent="1" vertex="1">
          <mxGeometry x="100" y="280" width="80" height="60" as="geometry" />
        </mxCell>
        <mxCell id="7" value="" style="endArrow=none;html=1;" parent="1" edge="1">
          <mxGeometry width="50" height="50" relative="1" as="geometry">
            <mxPoint x="140" y="220" as="sourcePoint" />
            <mxPoint x="690" y="220" as="targetPoint" />
          </mxGeometry>
        </mxCell>
        <mxCell id="13" style="edgeStyle=none;html=1;exitX=1;exitY=0.5;exitDx=0;exitDy=0;exitPerimeter=0;endArrow=none;endFill=0;" parent="1" source="12" edge="1">
          <mxGeometry relative="1" as="geometry">
            <mxPoint x="690" y="220" as="targetPoint" />
          </mxGeometry>
        </mxCell>
        <mxCell id="12" value="" style="shape=or;whiteSpace=wrap;html=1;direction=north;" parent="1" vertex="1">
          <mxGeometry x="650" y="280" width="80" height="60" as="geometry" />
        </mxCell>
        <mxCell id="15" style="edgeStyle=none;html=1;exitX=1;exitY=0.5;exitDx=0;exitDy=0;exitPerimeter=0;endArrow=none;endFill=0;" parent="1" source="14" edge="1">
          <mxGeometry relative="1" as="geometry">
            <mxPoint x="420" y="200" as="targetPoint" />
          </mxGeometry>
        </mxCell>
        <mxCell id="14" value="" style="shape=or;whiteSpace=wrap;html=1;direction=north;" parent="1" vertex="1">
          <mxGeometry x="380" y="280" width="80" height="60" as="geometry" />
        </mxCell>
        <mxCell id="17" value="&lt;div style=&quot;&quot;&gt;&lt;span style=&quot;font-size: 12pt; font-family: Calibri;&quot;&gt;MCAS mis&lt;/span&gt;&lt;span style=&quot;font-family: Calibri; font-size: 12pt;&quot;&gt;activation&lt;/span&gt;&lt;/div&gt;" style="rounded=0;whiteSpace=wrap;html=1;align=center;" parent="1" vertex="1">
          <mxGeometry x="360" y="30" width="120" height="60" as="geometry" />
        </mxCell>
        <mxCell id="19" style="edgeStyle=none;html=1;exitX=0.5;exitY=0;exitDx=0;exitDy=0;endArrow=none;endFill=0;" parent="1" source="18" edge="1">
          <mxGeometry relative="1" as="geometry">
            <mxPoint x="70" y="380" as="targetPoint" />
          </mxGeometry>
        </mxCell>
        <mxCell id="18" value="&lt;font style=&quot;font-size: 16px;&quot;&gt;Sensor 1 reports high AOA when the actual AOA is normal&lt;/font&gt;" style="rounded=0;whiteSpace=wrap;html=1;fillColor=#fff2cc;strokeColor=#d6b656;" parent="1" vertex="1">
          <mxGeometry x="10" y="410" width="120" height="110" as="geometry" />
        </mxCell>
        <mxCell id="20" value="" style="endArrow=none;html=1;" parent="1" edge="1">
          <mxGeometry width="50" height="50" relative="1" as="geometry">
            <mxPoint x="70" y="380" as="sourcePoint" />
            <mxPoint x="210" y="380" as="targetPoint" />
            <Array as="points">
              <mxPoint x="140" y="380" />
            </Array>
          </mxGeometry>
        </mxCell>
        <mxCell id="22" style="edgeStyle=none;html=1;exitX=0.5;exitY=0;exitDx=0;exitDy=0;endArrow=none;endFill=0;" parent="1" source="21" edge="1">
          <mxGeometry relative="1" as="geometry">
            <mxPoint x="210" y="380" as="targetPoint" />
          </mxGeometry>
        </mxCell>
        <mxCell id="21" value="&lt;span style=&quot;font-size: 16px;&quot;&gt;Sensor 2 reports normal AOA when the actual AOA is normal&lt;/span&gt;" style="rounded=0;whiteSpace=wrap;html=1;" parent="1" vertex="1">
          <mxGeometry x="150" y="410" width="120" height="110" as="geometry" />
        </mxCell>
        <mxCell id="25" value="" style="endArrow=none;html=1;" parent="1" edge="1">
          <mxGeometry width="50" height="50" relative="1" as="geometry">
            <mxPoint x="140" y="380" as="sourcePoint" />
            <mxPoint x="139.5" y="350" as="targetPoint" />
          </mxGeometry>
        </mxCell>
        <mxCell id="32" style="edgeStyle=none;html=1;exitX=0.5;exitY=0;exitDx=0;exitDy=0;endArrow=none;endFill=0;" parent="1" source="33" edge="1">
          <mxGeometry relative="1" as="geometry">
            <mxPoint x="620" y="380" as="targetPoint" />
          </mxGeometry>
        </mxCell>
        <mxCell id="33" value="&lt;span style=&quot;font-size: 16px;&quot;&gt;Sensor 1 reports high AOA when the actual AOA is normal&lt;/span&gt;" style="rounded=0;whiteSpace=wrap;html=1;fillColor=#fff2cc;strokeColor=#d6b656;" parent="1" vertex="1">
          <mxGeometry x="560" y="410" width="120" height="110" as="geometry" />
        </mxCell>
        <mxCell id="34" value="" style="endArrow=none;html=1;" parent="1" edge="1">
          <mxGeometry width="50" height="50" relative="1" as="geometry">
            <mxPoint x="620" y="380" as="sourcePoint" />
            <mxPoint x="760" y="380" as="targetPoint" />
            <Array as="points">
              <mxPoint x="690" y="380" />
            </Array>
          </mxGeometry>
        </mxCell>
        <mxCell id="35" style="edgeStyle=none;html=1;exitX=0.5;exitY=0;exitDx=0;exitDy=0;endArrow=none;endFill=0;" parent="1" source="36" edge="1">
          <mxGeometry relative="1" as="geometry">
            <mxPoint x="760" y="380" as="targetPoint" />
          </mxGeometry>
        </mxCell>
        <mxCell id="36" value="&lt;span style=&quot;font-size: 16px;&quot;&gt;Sensor 2 reports high AOA when the actual AOA is normal&lt;/span&gt;" style="rounded=0;whiteSpace=wrap;html=1;fillColor=#fff2cc;strokeColor=#d6b656;" parent="1" vertex="1">
          <mxGeometry x="700" y="410" width="120" height="110" as="geometry" />
        </mxCell>
        <mxCell id="37" value="" style="endArrow=none;html=1;" parent="1" edge="1">
          <mxGeometry width="50" height="50" relative="1" as="geometry">
            <mxPoint x="690" y="380" as="sourcePoint" />
            <mxPoint x="689.5" y="350" as="targetPoint" />
          </mxGeometry>
        </mxCell>
        <mxCell id="43" style="edgeStyle=none;html=1;exitX=0.5;exitY=0;exitDx=0;exitDy=0;endArrow=none;endFill=0;" parent="1" source="44" edge="1">
          <mxGeometry relative="1" as="geometry">
            <mxPoint x="350" y="380" as="targetPoint" />
          </mxGeometry>
        </mxCell>
        <mxCell id="44" value="&lt;span style=&quot;font-size: 16px;&quot;&gt;Sensor 1 reports normal AOA when the actual AOA is normal&lt;/span&gt;" style="rounded=0;whiteSpace=wrap;html=1;" parent="1" vertex="1">
          <mxGeometry x="290" y="410" width="120" height="110" as="geometry" />
        </mxCell>
        <mxCell id="45" value="" style="endArrow=none;html=1;" parent="1" edge="1">
          <mxGeometry width="50" height="50" relative="1" as="geometry">
            <mxPoint x="350" y="380" as="sourcePoint" />
            <mxPoint x="490" y="380" as="targetPoint" />
            <Array as="points">
              <mxPoint x="420" y="380" />
            </Array>
          </mxGeometry>
        </mxCell>
        <mxCell id="46" style="edgeStyle=none;html=1;exitX=0.5;exitY=0;exitDx=0;exitDy=0;endArrow=none;endFill=0;" parent="1" source="47" edge="1">
          <mxGeometry relative="1" as="geometry">
            <mxPoint x="490" y="380" as="targetPoint" />
          </mxGeometry>
        </mxCell>
        <mxCell id="47" value="&lt;span style=&quot;font-size: 16px;&quot;&gt;Sensor 2 reports high AOA when the actual AOA is normal&lt;/span&gt;" style="rounded=0;whiteSpace=wrap;html=1;fillColor=#fff2cc;strokeColor=#d6b656;" parent="1" vertex="1">
          <mxGeometry x="430" y="410" width="120" height="110" as="geometry" />
        </mxCell>
        <mxCell id="48" value="" style="endArrow=none;html=1;" parent="1" edge="1">
          <mxGeometry width="50" height="50" relative="1" as="geometry">
            <mxPoint x="420" y="380" as="sourcePoint" />
            <mxPoint x="419.5" y="350" as="targetPoint" />
          </mxGeometry>
        </mxCell>
      </root>
    </mxGraphModel>
  </diagram>
  <diagram id="DCsWwa_DFI6U8Z5NdRGg" name="第 2 页">
    <mxGraphModel dx="1242" dy="778" grid="1" gridSize="10" guides="1" tooltips="1" connect="1" arrows="1" fold="1" page="1" pageScale="1" pageWidth="827" pageHeight="1169" math="0" shadow="0">
      <root>
        <mxCell id="0" />
        <mxCell id="1" parent="0" />
        <mxCell id="lLhUIIlcx3mO_iw_Zd8W-1" style="edgeStyle=none;html=1;exitX=1;exitY=0.5;exitDx=0;exitDy=0;exitPerimeter=0;endArrow=none;endFill=0;" edge="1" parent="1" source="lLhUIIlcx3mO_iw_Zd8W-9">
          <mxGeometry relative="1" as="geometry">
            <mxPoint x="420" y="240" as="targetPoint" />
            <mxPoint x="420" y="130" as="sourcePoint" />
          </mxGeometry>
        </mxCell>
        <mxCell id="lLhUIIlcx3mO_iw_Zd8W-9" value="" style="shape=or;whiteSpace=wrap;html=1;direction=north;" vertex="1" parent="1">
          <mxGeometry x="380" y="280" width="80" height="60" as="geometry" />
        </mxCell>
        <mxCell id="lLhUIIlcx3mO_iw_Zd8W-10" value="&lt;div style=&quot;&quot;&gt;&lt;span style=&quot;font-size: 12pt; font-family: Calibri;&quot;&gt;MCAS mis&lt;/span&gt;&lt;span style=&quot;font-family: Calibri; font-size: 12pt;&quot;&gt;activation&lt;/span&gt;&lt;/div&gt;" style="rounded=0;whiteSpace=wrap;html=1;align=center;" vertex="1" parent="1">
          <mxGeometry x="360" y="170" width="120" height="60" as="geometry" />
        </mxCell>
        <mxCell id="lLhUIIlcx3mO_iw_Zd8W-22" style="edgeStyle=none;html=1;exitX=0.5;exitY=0;exitDx=0;exitDy=0;endArrow=none;endFill=0;" edge="1" parent="1" source="lLhUIIlcx3mO_iw_Zd8W-23">
          <mxGeometry relative="1" as="geometry">
            <mxPoint x="350" y="380" as="targetPoint" />
          </mxGeometry>
        </mxCell>
        <mxCell id="lLhUIIlcx3mO_iw_Zd8W-23" value="&lt;span style=&quot;font-size: 16px;&quot;&gt;Sensor 1 reports high AOA when the actual AOA is normal&lt;/span&gt;" style="rounded=0;whiteSpace=wrap;html=1;fillColor=#fff2cc;strokeColor=#d6b656;" vertex="1" parent="1">
          <mxGeometry x="290" y="410" width="120" height="110" as="geometry" />
        </mxCell>
        <mxCell id="lLhUIIlcx3mO_iw_Zd8W-24" value="" style="endArrow=none;html=1;" edge="1" parent="1">
          <mxGeometry width="50" height="50" relative="1" as="geometry">
            <mxPoint x="350" y="380" as="sourcePoint" />
            <mxPoint x="490" y="380" as="targetPoint" />
            <Array as="points">
              <mxPoint x="420" y="380" />
            </Array>
          </mxGeometry>
        </mxCell>
        <mxCell id="lLhUIIlcx3mO_iw_Zd8W-25" style="edgeStyle=none;html=1;exitX=0.5;exitY=0;exitDx=0;exitDy=0;endArrow=none;endFill=0;" edge="1" parent="1" source="lLhUIIlcx3mO_iw_Zd8W-26">
          <mxGeometry relative="1" as="geometry">
            <mxPoint x="490" y="380" as="targetPoint" />
          </mxGeometry>
        </mxCell>
        <mxCell id="lLhUIIlcx3mO_iw_Zd8W-26" value="&lt;span style=&quot;font-size: 16px;&quot;&gt;Sensor 2 reports high AOA when the actual AOA is normal&lt;/span&gt;" style="rounded=0;whiteSpace=wrap;html=1;fillColor=#fff2cc;strokeColor=#d6b656;" vertex="1" parent="1">
          <mxGeometry x="430" y="410" width="120" height="110" as="geometry" />
        </mxCell>
        <mxCell id="lLhUIIlcx3mO_iw_Zd8W-27" value="" style="endArrow=none;html=1;" edge="1" parent="1">
          <mxGeometry width="50" height="50" relative="1" as="geometry">
            <mxPoint x="420" y="380" as="sourcePoint" />
            <mxPoint x="419.5" y="350" as="targetPoint" />
          </mxGeometry>
        </mxCell>
      </root>
    </mxGraphModel>
  </diagram>
  <diagram id="4rqomePe5chbL3oORIlc" name="第 3 页">
    <mxGraphModel dx="1242" dy="778" grid="1" gridSize="10" guides="1" tooltips="1" connect="1" arrows="1" fold="1" page="1" pageScale="1" pageWidth="827" pageHeight="1169" math="0" shadow="0">
      <root>
        <mxCell id="0" />
        <mxCell id="1" parent="0" />
        <mxCell id="Rg4v0fNP_BCQc1RvuC7_-1" style="edgeStyle=none;html=1;exitX=1;exitY=0.5;exitDx=0;exitDy=0;exitPerimeter=0;endArrow=none;endFill=0;" edge="1" parent="1" source="Rg4v0fNP_BCQc1RvuC7_-2">
          <mxGeometry relative="1" as="geometry">
            <mxPoint x="420" y="240" as="targetPoint" />
            <mxPoint x="420" y="130" as="sourcePoint" />
          </mxGeometry>
        </mxCell>
        <mxCell id="Rg4v0fNP_BCQc1RvuC7_-2" value="" style="shape=or;whiteSpace=wrap;html=1;direction=north;" vertex="1" parent="1">
          <mxGeometry x="380" y="280" width="80" height="60" as="geometry" />
        </mxCell>
        <mxCell id="Rg4v0fNP_BCQc1RvuC7_-3" value="&lt;div style=&quot;&quot;&gt;&lt;div&gt;&lt;font style=&quot;font-size: 16px;&quot;&gt;MCAS fails to activate when needed&lt;/font&gt;&lt;/div&gt;&lt;/div&gt;" style="rounded=0;whiteSpace=wrap;html=1;align=center;" vertex="1" parent="1">
          <mxGeometry x="360" y="170" width="120" height="60" as="geometry" />
        </mxCell>
        <mxCell id="Rg4v0fNP_BCQc1RvuC7_-4" style="edgeStyle=none;html=1;exitX=0.5;exitY=0;exitDx=0;exitDy=0;endArrow=none;endFill=0;" edge="1" parent="1" source="Rg4v0fNP_BCQc1RvuC7_-5">
          <mxGeometry relative="1" as="geometry">
            <mxPoint x="350" y="380" as="targetPoint" />
          </mxGeometry>
        </mxCell>
        <mxCell id="Rg4v0fNP_BCQc1RvuC7_-5" value="&lt;span style=&quot;font-size: 16px;&quot;&gt;Sensor 1 reports low AOA when the actual AOA is high&lt;/span&gt;" style="rounded=0;whiteSpace=wrap;html=1;fillColor=#fff2cc;strokeColor=#d6b656;" vertex="1" parent="1">
          <mxGeometry x="290" y="410" width="120" height="110" as="geometry" />
        </mxCell>
        <mxCell id="Rg4v0fNP_BCQc1RvuC7_-6" value="" style="endArrow=none;html=1;" edge="1" parent="1">
          <mxGeometry width="50" height="50" relative="1" as="geometry">
            <mxPoint x="350" y="380" as="sourcePoint" />
            <mxPoint x="490" y="380" as="targetPoint" />
            <Array as="points">
              <mxPoint x="420" y="380" />
            </Array>
          </mxGeometry>
        </mxCell>
        <mxCell id="Rg4v0fNP_BCQc1RvuC7_-7" style="edgeStyle=none;html=1;exitX=0.5;exitY=0;exitDx=0;exitDy=0;endArrow=none;endFill=0;" edge="1" parent="1" source="Rg4v0fNP_BCQc1RvuC7_-8">
          <mxGeometry relative="1" as="geometry">
            <mxPoint x="490" y="380" as="targetPoint" />
          </mxGeometry>
        </mxCell>
        <mxCell id="Rg4v0fNP_BCQc1RvuC7_-8" value="&lt;span style=&quot;font-size: 16px;&quot;&gt;Sensor 2 reports low AOA when the actual AOA is high&lt;/span&gt;" style="rounded=0;whiteSpace=wrap;html=1;fillColor=#fff2cc;strokeColor=#d6b656;" vertex="1" parent="1">
          <mxGeometry x="430" y="410" width="120" height="110" as="geometry" />
        </mxCell>
        <mxCell id="Rg4v0fNP_BCQc1RvuC7_-9" value="" style="endArrow=none;html=1;" edge="1" parent="1">
          <mxGeometry width="50" height="50" relative="1" as="geometry">
            <mxPoint x="420" y="380" as="sourcePoint" />
            <mxPoint x="419.5" y="350" as="targetPoint" />
          </mxGeometry>
        </mxCell>
      </root>
    </mxGraphModel>
  </diagram>
  <diagram id="HeDFmOdVfFomlvLnGKRc" name="第 4 页">
    <mxGraphModel dx="1242" dy="778" grid="1" gridSize="10" guides="1" tooltips="1" connect="1" arrows="1" fold="1" page="1" pageScale="1" pageWidth="827" pageHeight="1169" math="0" shadow="0">
      <root>
        <mxCell id="0" />
        <mxCell id="1" parent="0" />
        <mxCell id="ooqQTWMtbxIb9snkP9p6-1" style="edgeStyle=none;html=1;exitX=1;exitY=0.5;exitDx=0;exitDy=0;exitPerimeter=0;endArrow=none;endFill=0;" edge="1" parent="1" source="ooqQTWMtbxIb9snkP9p6-2">
          <mxGeometry relative="1" as="geometry">
            <mxPoint x="420" y="90" as="targetPoint" />
          </mxGeometry>
        </mxCell>
        <mxCell id="ooqQTWMtbxIb9snkP9p6-2" value="" style="shape=xor;whiteSpace=wrap;html=1;direction=north;" vertex="1" parent="1">
          <mxGeometry x="380" y="130" width="80" height="60" as="geometry" />
        </mxCell>
        <mxCell id="ooqQTWMtbxIb9snkP9p6-3" style="edgeStyle=none;html=1;exitX=1;exitY=0.5;exitDx=0;exitDy=0;exitPerimeter=0;endArrow=none;endFill=0;" edge="1" parent="1" source="ooqQTWMtbxIb9snkP9p6-4">
          <mxGeometry relative="1" as="geometry">
            <mxPoint x="140" y="220" as="targetPoint" />
          </mxGeometry>
        </mxCell>
        <mxCell id="ooqQTWMtbxIb9snkP9p6-4" value="" style="shape=or;whiteSpace=wrap;html=1;direction=north;" vertex="1" parent="1">
          <mxGeometry x="100" y="280" width="80" height="60" as="geometry" />
        </mxCell>
        <mxCell id="ooqQTWMtbxIb9snkP9p6-5" value="" style="endArrow=none;html=1;" edge="1" parent="1">
          <mxGeometry width="50" height="50" relative="1" as="geometry">
            <mxPoint x="140" y="220" as="sourcePoint" />
            <mxPoint x="690" y="220" as="targetPoint" />
          </mxGeometry>
        </mxCell>
        <mxCell id="ooqQTWMtbxIb9snkP9p6-6" style="edgeStyle=none;html=1;exitX=1;exitY=0.5;exitDx=0;exitDy=0;exitPerimeter=0;endArrow=none;endFill=0;" edge="1" parent="1" source="ooqQTWMtbxIb9snkP9p6-7">
          <mxGeometry relative="1" as="geometry">
            <mxPoint x="690" y="220" as="targetPoint" />
          </mxGeometry>
        </mxCell>
        <mxCell id="ooqQTWMtbxIb9snkP9p6-7" value="" style="shape=or;whiteSpace=wrap;html=1;direction=north;" vertex="1" parent="1">
          <mxGeometry x="650" y="280" width="80" height="60" as="geometry" />
        </mxCell>
        <mxCell id="ooqQTWMtbxIb9snkP9p6-8" style="edgeStyle=none;html=1;exitX=1;exitY=0.5;exitDx=0;exitDy=0;exitPerimeter=0;endArrow=none;endFill=0;" edge="1" parent="1" source="ooqQTWMtbxIb9snkP9p6-9">
          <mxGeometry relative="1" as="geometry">
            <mxPoint x="420" y="200" as="targetPoint" />
          </mxGeometry>
        </mxCell>
        <mxCell id="ooqQTWMtbxIb9snkP9p6-9" value="" style="shape=or;whiteSpace=wrap;html=1;direction=north;" vertex="1" parent="1">
          <mxGeometry x="380" y="280" width="80" height="60" as="geometry" />
        </mxCell>
        <mxCell id="ooqQTWMtbxIb9snkP9p6-10" value="&lt;div style=&quot;&quot;&gt;&lt;span style=&quot;font-size: 16px;&quot;&gt;MCAS fails to activate when needed&lt;/span&gt;&lt;br&gt;&lt;/div&gt;" style="rounded=0;whiteSpace=wrap;html=1;align=center;" vertex="1" parent="1">
          <mxGeometry x="360" y="30" width="120" height="60" as="geometry" />
        </mxCell>
        <mxCell id="ooqQTWMtbxIb9snkP9p6-11" style="edgeStyle=none;html=1;exitX=0.5;exitY=0;exitDx=0;exitDy=0;endArrow=none;endFill=0;" edge="1" parent="1" source="ooqQTWMtbxIb9snkP9p6-12">
          <mxGeometry relative="1" as="geometry">
            <mxPoint x="70" y="380" as="targetPoint" />
          </mxGeometry>
        </mxCell>
        <mxCell id="ooqQTWMtbxIb9snkP9p6-12" value="&lt;font style=&quot;font-size: 16px;&quot;&gt;Sensor 1 reports low AOA when the actual AOA is high&lt;/font&gt;" style="rounded=0;whiteSpace=wrap;html=1;fillColor=#fff2cc;strokeColor=#d6b656;" vertex="1" parent="1">
          <mxGeometry x="10" y="410" width="120" height="110" as="geometry" />
        </mxCell>
        <mxCell id="ooqQTWMtbxIb9snkP9p6-13" value="" style="endArrow=none;html=1;" edge="1" parent="1">
          <mxGeometry width="50" height="50" relative="1" as="geometry">
            <mxPoint x="70" y="380" as="sourcePoint" />
            <mxPoint x="210" y="380" as="targetPoint" />
            <Array as="points">
              <mxPoint x="140" y="380" />
            </Array>
          </mxGeometry>
        </mxCell>
        <mxCell id="ooqQTWMtbxIb9snkP9p6-14" style="edgeStyle=none;html=1;exitX=0.5;exitY=0;exitDx=0;exitDy=0;endArrow=none;endFill=0;" edge="1" parent="1" source="ooqQTWMtbxIb9snkP9p6-15">
          <mxGeometry relative="1" as="geometry">
            <mxPoint x="210" y="380" as="targetPoint" />
          </mxGeometry>
        </mxCell>
        <mxCell id="ooqQTWMtbxIb9snkP9p6-15" value="&lt;span style=&quot;font-size: 16px;&quot;&gt;Sensor 2 reports high AOA when the actual AOA is high&lt;/span&gt;" style="rounded=0;whiteSpace=wrap;html=1;" vertex="1" parent="1">
          <mxGeometry x="150" y="410" width="120" height="110" as="geometry" />
        </mxCell>
        <mxCell id="ooqQTWMtbxIb9snkP9p6-16" value="" style="endArrow=none;html=1;" edge="1" parent="1">
          <mxGeometry width="50" height="50" relative="1" as="geometry">
            <mxPoint x="140" y="380" as="sourcePoint" />
            <mxPoint x="139.5" y="350" as="targetPoint" />
          </mxGeometry>
        </mxCell>
        <mxCell id="ooqQTWMtbxIb9snkP9p6-17" style="edgeStyle=none;html=1;exitX=0.5;exitY=0;exitDx=0;exitDy=0;endArrow=none;endFill=0;" edge="1" parent="1" source="ooqQTWMtbxIb9snkP9p6-18">
          <mxGeometry relative="1" as="geometry">
            <mxPoint x="620" y="380" as="targetPoint" />
          </mxGeometry>
        </mxCell>
        <mxCell id="ooqQTWMtbxIb9snkP9p6-18" value="&lt;span style=&quot;font-size: 16px;&quot;&gt;Sensor 1 reports low AOA when the actual AOA is high&lt;/span&gt;" style="rounded=0;whiteSpace=wrap;html=1;fillColor=#fff2cc;strokeColor=#d6b656;" vertex="1" parent="1">
          <mxGeometry x="560" y="410" width="120" height="110" as="geometry" />
        </mxCell>
        <mxCell id="ooqQTWMtbxIb9snkP9p6-19" value="" style="endArrow=none;html=1;" edge="1" parent="1">
          <mxGeometry width="50" height="50" relative="1" as="geometry">
            <mxPoint x="620" y="380" as="sourcePoint" />
            <mxPoint x="760" y="380" as="targetPoint" />
            <Array as="points">
              <mxPoint x="690" y="380" />
            </Array>
          </mxGeometry>
        </mxCell>
        <mxCell id="ooqQTWMtbxIb9snkP9p6-20" style="edgeStyle=none;html=1;exitX=0.5;exitY=0;exitDx=0;exitDy=0;endArrow=none;endFill=0;" edge="1" parent="1" source="ooqQTWMtbxIb9snkP9p6-21">
          <mxGeometry relative="1" as="geometry">
            <mxPoint x="760" y="380" as="targetPoint" />
          </mxGeometry>
        </mxCell>
        <mxCell id="ooqQTWMtbxIb9snkP9p6-21" value="&lt;span style=&quot;font-size: 16px;&quot;&gt;Sensor 2 reports low AOA when the actual AOA is high&lt;/span&gt;" style="rounded=0;whiteSpace=wrap;html=1;fillColor=#fff2cc;strokeColor=#d6b656;" vertex="1" parent="1">
          <mxGeometry x="700" y="410" width="120" height="110" as="geometry" />
        </mxCell>
        <mxCell id="ooqQTWMtbxIb9snkP9p6-22" value="" style="endArrow=none;html=1;" edge="1" parent="1">
          <mxGeometry width="50" height="50" relative="1" as="geometry">
            <mxPoint x="690" y="380" as="sourcePoint" />
            <mxPoint x="689.5" y="350" as="targetPoint" />
          </mxGeometry>
        </mxCell>
        <mxCell id="ooqQTWMtbxIb9snkP9p6-23" style="edgeStyle=none;html=1;exitX=0.5;exitY=0;exitDx=0;exitDy=0;endArrow=none;endFill=0;" edge="1" parent="1" source="ooqQTWMtbxIb9snkP9p6-24">
          <mxGeometry relative="1" as="geometry">
            <mxPoint x="350" y="380" as="targetPoint" />
          </mxGeometry>
        </mxCell>
        <mxCell id="ooqQTWMtbxIb9snkP9p6-24" value="&lt;span style=&quot;font-size: 16px;&quot;&gt;Sensor 1 reports high AOA when the actual AOA is high&lt;/span&gt;" style="rounded=0;whiteSpace=wrap;html=1;" vertex="1" parent="1">
          <mxGeometry x="290" y="410" width="120" height="110" as="geometry" />
        </mxCell>
        <mxCell id="ooqQTWMtbxIb9snkP9p6-25" value="" style="endArrow=none;html=1;" edge="1" parent="1">
          <mxGeometry width="50" height="50" relative="1" as="geometry">
            <mxPoint x="350" y="380" as="sourcePoint" />
            <mxPoint x="490" y="380" as="targetPoint" />
            <Array as="points">
              <mxPoint x="420" y="380" />
            </Array>
          </mxGeometry>
        </mxCell>
        <mxCell id="ooqQTWMtbxIb9snkP9p6-26" style="edgeStyle=none;html=1;exitX=0.5;exitY=0;exitDx=0;exitDy=0;endArrow=none;endFill=0;" edge="1" parent="1" source="ooqQTWMtbxIb9snkP9p6-27">
          <mxGeometry relative="1" as="geometry">
            <mxPoint x="490" y="380" as="targetPoint" />
          </mxGeometry>
        </mxCell>
        <mxCell id="ooqQTWMtbxIb9snkP9p6-27" value="&lt;span style=&quot;font-size: 16px;&quot;&gt;Sensor 2 reports low AOA when the actual AOA is high&lt;/span&gt;" style="rounded=0;whiteSpace=wrap;html=1;fillColor=#fff2cc;strokeColor=#d6b656;" vertex="1" parent="1">
          <mxGeometry x="430" y="410" width="120" height="110" as="geometry" />
        </mxCell>
        <mxCell id="ooqQTWMtbxIb9snkP9p6-28" value="" style="endArrow=none;html=1;" edge="1" parent="1">
          <mxGeometry width="50" height="50" relative="1" as="geometry">
            <mxPoint x="420" y="380" as="sourcePoint" />
            <mxPoint x="419.5" y="350" as="targetPoint" />
          </mxGeometry>
        </mxCell>
      </root>
    </mxGraphModel>
  </diagram>
  <diagram id="35jEq9JJzdzXxWC6ID9N" name="第 5 页">
    <mxGraphModel dx="1242" dy="778" grid="1" gridSize="10" guides="1" tooltips="1" connect="1" arrows="1" fold="1" page="1" pageScale="1" pageWidth="827" pageHeight="1169" math="0" shadow="0">
      <root>
        <mxCell id="0" />
        <mxCell id="1" parent="0" />
        <mxCell id="rTTrQQGuH_oWkrhYcCFK-1" style="edgeStyle=none;html=1;exitX=1;exitY=0.5;exitDx=0;exitDy=0;exitPerimeter=0;endArrow=none;endFill=0;" edge="1" parent="1" source="rTTrQQGuH_oWkrhYcCFK-2">
          <mxGeometry relative="1" as="geometry">
            <mxPoint x="420" y="90" as="targetPoint" />
          </mxGeometry>
        </mxCell>
        <mxCell id="rTTrQQGuH_oWkrhYcCFK-2" value="" style="shape=xor;whiteSpace=wrap;html=1;direction=north;" vertex="1" parent="1">
          <mxGeometry x="380" y="130" width="80" height="60" as="geometry" />
        </mxCell>
        <mxCell id="rTTrQQGuH_oWkrhYcCFK-3" style="edgeStyle=none;html=1;exitX=1;exitY=0.5;exitDx=0;exitDy=0;exitPerimeter=0;endArrow=none;endFill=0;" edge="1" parent="1" source="rTTrQQGuH_oWkrhYcCFK-4">
          <mxGeometry relative="1" as="geometry">
            <mxPoint x="210" y="220" as="targetPoint" />
          </mxGeometry>
        </mxCell>
        <mxCell id="rTTrQQGuH_oWkrhYcCFK-4" value="" style="shape=or;whiteSpace=wrap;html=1;direction=north;" vertex="1" parent="1">
          <mxGeometry x="170" y="280" width="80" height="60" as="geometry" />
        </mxCell>
        <mxCell id="rTTrQQGuH_oWkrhYcCFK-5" value="" style="endArrow=none;html=1;" edge="1" parent="1">
          <mxGeometry width="50" height="50" relative="1" as="geometry">
            <mxPoint x="210" y="220" as="sourcePoint" />
            <mxPoint x="620" y="220" as="targetPoint" />
          </mxGeometry>
        </mxCell>
        <mxCell id="rTTrQQGuH_oWkrhYcCFK-6" style="edgeStyle=none;html=1;exitX=1;exitY=0.5;exitDx=0;exitDy=0;exitPerimeter=0;endArrow=none;endFill=0;" edge="1" parent="1" source="rTTrQQGuH_oWkrhYcCFK-7">
          <mxGeometry relative="1" as="geometry">
            <mxPoint x="620" y="220" as="targetPoint" />
          </mxGeometry>
        </mxCell>
        <mxCell id="rTTrQQGuH_oWkrhYcCFK-7" value="" style="shape=or;whiteSpace=wrap;html=1;direction=north;" vertex="1" parent="1">
          <mxGeometry x="580" y="280" width="80" height="60" as="geometry" />
        </mxCell>
        <mxCell id="rTTrQQGuH_oWkrhYcCFK-10" value="&lt;div style=&quot;&quot;&gt;&lt;span style=&quot;font-size: 12pt; font-family: Calibri;&quot;&gt;MCAS mis&lt;/span&gt;&lt;span style=&quot;font-family: Calibri; font-size: 12pt;&quot;&gt;activation&lt;/span&gt;&lt;br&gt;&lt;/div&gt;" style="rounded=0;whiteSpace=wrap;html=1;align=center;" vertex="1" parent="1">
          <mxGeometry x="360" y="30" width="120" height="60" as="geometry" />
        </mxCell>
        <mxCell id="rTTrQQGuH_oWkrhYcCFK-11" style="edgeStyle=none;html=1;exitX=0.5;exitY=0;exitDx=0;exitDy=0;endArrow=none;endFill=0;" edge="1" parent="1" source="rTTrQQGuH_oWkrhYcCFK-12">
          <mxGeometry relative="1" as="geometry">
            <mxPoint x="70" y="380" as="targetPoint" />
          </mxGeometry>
        </mxCell>
        <mxCell id="rTTrQQGuH_oWkrhYcCFK-12" value="&lt;font style=&quot;font-size: 16px;&quot;&gt;Sensor 1 reports high AOA when the actual AOA is normal&lt;/font&gt;" style="rounded=0;whiteSpace=wrap;html=1;fillColor=#fff2cc;strokeColor=#d6b656;" vertex="1" parent="1">
          <mxGeometry x="10" y="410" width="120" height="110" as="geometry" />
        </mxCell>
        <mxCell id="rTTrQQGuH_oWkrhYcCFK-13" value="" style="endArrow=none;html=1;" edge="1" parent="1">
          <mxGeometry width="50" height="50" relative="1" as="geometry">
            <mxPoint x="70" y="380" as="sourcePoint" />
            <mxPoint x="340" y="380" as="targetPoint" />
            <Array as="points">
              <mxPoint x="140" y="380" />
            </Array>
          </mxGeometry>
        </mxCell>
        <mxCell id="rTTrQQGuH_oWkrhYcCFK-14" style="edgeStyle=none;html=1;exitX=0.5;exitY=0;exitDx=0;exitDy=0;endArrow=none;endFill=0;" edge="1" parent="1" source="rTTrQQGuH_oWkrhYcCFK-15">
          <mxGeometry relative="1" as="geometry">
            <mxPoint x="210" y="380" as="targetPoint" />
          </mxGeometry>
        </mxCell>
        <mxCell id="rTTrQQGuH_oWkrhYcCFK-15" value="&lt;span style=&quot;font-size: 16px;&quot;&gt;Sensor 2 reports high AOA when the actual AOA is normal&lt;/span&gt;" style="rounded=0;whiteSpace=wrap;html=1;fillColor=#fff2cc;strokeColor=#d6b656;" vertex="1" parent="1">
          <mxGeometry x="150" y="410" width="120" height="110" as="geometry" />
        </mxCell>
        <mxCell id="rTTrQQGuH_oWkrhYcCFK-16" value="" style="endArrow=none;html=1;" edge="1" parent="1">
          <mxGeometry width="50" height="50" relative="1" as="geometry">
            <mxPoint x="210" y="380" as="sourcePoint" />
            <mxPoint x="209.5" y="350" as="targetPoint" />
          </mxGeometry>
        </mxCell>
        <mxCell id="rTTrQQGuH_oWkrhYcCFK-17" style="edgeStyle=none;html=1;exitX=0.5;exitY=0;exitDx=0;exitDy=0;endArrow=none;endFill=0;" edge="1" parent="1" source="rTTrQQGuH_oWkrhYcCFK-18">
          <mxGeometry relative="1" as="geometry">
            <mxPoint x="620" y="380" as="targetPoint" />
          </mxGeometry>
        </mxCell>
        <mxCell id="rTTrQQGuH_oWkrhYcCFK-18" value="&lt;span style=&quot;font-size: 16px;&quot;&gt;Sensor 2 reports high AOA when the actual AOA is normal&lt;/span&gt;" style="rounded=0;whiteSpace=wrap;html=1;fillColor=#fff2cc;strokeColor=#d6b656;" vertex="1" parent="1">
          <mxGeometry x="560" y="410" width="120" height="110" as="geometry" />
        </mxCell>
        <mxCell id="rTTrQQGuH_oWkrhYcCFK-19" value="" style="endArrow=none;html=1;" edge="1" parent="1">
          <mxGeometry width="50" height="50" relative="1" as="geometry">
            <mxPoint x="480" y="380" as="sourcePoint" />
            <mxPoint x="760" y="380" as="targetPoint" />
            <Array as="points">
              <mxPoint x="690" y="380" />
            </Array>
          </mxGeometry>
        </mxCell>
        <mxCell id="rTTrQQGuH_oWkrhYcCFK-20" style="edgeStyle=none;html=1;exitX=0.5;exitY=0;exitDx=0;exitDy=0;endArrow=none;endFill=0;" edge="1" parent="1" source="rTTrQQGuH_oWkrhYcCFK-21">
          <mxGeometry relative="1" as="geometry">
            <mxPoint x="760" y="380" as="targetPoint" />
          </mxGeometry>
        </mxCell>
        <mxCell id="rTTrQQGuH_oWkrhYcCFK-21" value="&lt;span style=&quot;font-size: 16px;&quot;&gt;Sensor 3 reports high AOA when the actual AOA is normal&lt;/span&gt;" style="rounded=0;whiteSpace=wrap;html=1;fillColor=#fff2cc;strokeColor=#d6b656;" vertex="1" parent="1">
          <mxGeometry x="700" y="410" width="120" height="110" as="geometry" />
        </mxCell>
        <mxCell id="rTTrQQGuH_oWkrhYcCFK-22" value="" style="endArrow=none;html=1;" edge="1" parent="1">
          <mxGeometry width="50" height="50" relative="1" as="geometry">
            <mxPoint x="620" y="380" as="sourcePoint" />
            <mxPoint x="619.5" y="350" as="targetPoint" />
          </mxGeometry>
        </mxCell>
        <mxCell id="pOLnThF-H6rozqzxyhoK-1" style="edgeStyle=none;html=1;exitX=0.5;exitY=0;exitDx=0;exitDy=0;endArrow=none;endFill=0;" edge="1" parent="1" source="pOLnThF-H6rozqzxyhoK-2">
          <mxGeometry relative="1" as="geometry">
            <mxPoint x="340" y="380" as="targetPoint" />
          </mxGeometry>
        </mxCell>
        <mxCell id="pOLnThF-H6rozqzxyhoK-2" value="&lt;font style=&quot;font-size: 16px;&quot;&gt;Sensor 3 reports normal AOA when the actual AOA is normal&lt;/font&gt;" style="rounded=0;whiteSpace=wrap;html=1;" vertex="1" parent="1">
          <mxGeometry x="280" y="410" width="120" height="110" as="geometry" />
        </mxCell>
        <mxCell id="pOLnThF-H6rozqzxyhoK-3" style="edgeStyle=none;html=1;exitX=0.5;exitY=0;exitDx=0;exitDy=0;endArrow=none;endFill=0;" edge="1" parent="1" source="pOLnThF-H6rozqzxyhoK-4">
          <mxGeometry relative="1" as="geometry">
            <mxPoint x="480" y="380" as="targetPoint" />
          </mxGeometry>
        </mxCell>
        <mxCell id="pOLnThF-H6rozqzxyhoK-4" value="&lt;span style=&quot;font-size: 16px;&quot;&gt;Sensor 1 reports high AOA when the actual AOA is normal&lt;/span&gt;" style="rounded=0;whiteSpace=wrap;html=1;fillColor=#fff2cc;strokeColor=#d6b656;" vertex="1" parent="1">
          <mxGeometry x="420" y="410" width="120" height="110" as="geometry" />
        </mxCell>
        <mxCell id="pOLnThF-H6rozqzxyhoK-6" style="edgeStyle=none;html=1;exitX=1;exitY=0.5;exitDx=0;exitDy=0;exitPerimeter=0;endArrow=none;endFill=0;" edge="1" parent="1">
          <mxGeometry relative="1" as="geometry">
            <mxPoint x="420" y="180" as="targetPoint" />
            <mxPoint x="420" y="220" as="sourcePoint" />
          </mxGeometry>
        </mxCell>
        <mxCell id="pOLnThF-H6rozqzxyhoK-7" value="&lt;font style=&quot;font-size: 16px;&quot;&gt;*3&lt;/font&gt;" style="text;html=1;align=center;verticalAlign=middle;resizable=0;points=[];autosize=1;strokeColor=none;fillColor=none;" vertex="1" parent="1">
          <mxGeometry x="200" y="220" width="40" height="30" as="geometry" />
        </mxCell>
      </root>
    </mxGraphModel>
  </diagram>
  <diagram id="87UlVklSoNH-U455Fh50" name="第 6 页">
    <mxGraphModel dx="1242" dy="750" grid="1" gridSize="10" guides="1" tooltips="1" connect="1" arrows="1" fold="1" page="1" pageScale="1" pageWidth="827" pageHeight="1169" math="0" shadow="0">
      <root>
        <mxCell id="0" />
        <mxCell id="1" parent="0" />
        <mxCell id="XqtoBZGEsD2tM-cmgYZ9-27" style="edgeStyle=none;html=1;exitX=1;exitY=0.5;exitDx=0;exitDy=0;exitPerimeter=0;endArrow=none;endFill=0;" edge="1" parent="1" source="XqtoBZGEsD2tM-cmgYZ9-28">
          <mxGeometry relative="1" as="geometry">
            <mxPoint x="419" y="110" as="targetPoint" />
          </mxGeometry>
        </mxCell>
        <mxCell id="XqtoBZGEsD2tM-cmgYZ9-28" value="" style="shape=xor;whiteSpace=wrap;html=1;direction=north;" vertex="1" parent="1">
          <mxGeometry x="379" y="150" width="80" height="60" as="geometry" />
        </mxCell>
        <mxCell id="XqtoBZGEsD2tM-cmgYZ9-29" style="edgeStyle=none;html=1;exitX=1;exitY=0.5;exitDx=0;exitDy=0;exitPerimeter=0;endArrow=none;endFill=0;" edge="1" parent="1" source="XqtoBZGEsD2tM-cmgYZ9-30">
          <mxGeometry relative="1" as="geometry">
            <mxPoint x="209" y="240" as="targetPoint" />
          </mxGeometry>
        </mxCell>
        <mxCell id="XqtoBZGEsD2tM-cmgYZ9-30" value="" style="shape=or;whiteSpace=wrap;html=1;direction=north;" vertex="1" parent="1">
          <mxGeometry x="169" y="300" width="80" height="60" as="geometry" />
        </mxCell>
        <mxCell id="XqtoBZGEsD2tM-cmgYZ9-31" value="" style="endArrow=none;html=1;" edge="1" parent="1">
          <mxGeometry width="50" height="50" relative="1" as="geometry">
            <mxPoint x="209" y="240" as="sourcePoint" />
            <mxPoint x="619" y="240" as="targetPoint" />
          </mxGeometry>
        </mxCell>
        <mxCell id="XqtoBZGEsD2tM-cmgYZ9-32" style="edgeStyle=none;html=1;exitX=1;exitY=0.5;exitDx=0;exitDy=0;exitPerimeter=0;endArrow=none;endFill=0;" edge="1" parent="1" source="XqtoBZGEsD2tM-cmgYZ9-33">
          <mxGeometry relative="1" as="geometry">
            <mxPoint x="619" y="240" as="targetPoint" />
          </mxGeometry>
        </mxCell>
        <mxCell id="XqtoBZGEsD2tM-cmgYZ9-33" value="" style="shape=or;whiteSpace=wrap;html=1;direction=north;" vertex="1" parent="1">
          <mxGeometry x="579" y="300" width="80" height="60" as="geometry" />
        </mxCell>
        <mxCell id="XqtoBZGEsD2tM-cmgYZ9-34" value="&lt;div style=&quot;&quot;&gt;&lt;span style=&quot;font-size: 12pt; font-family: Calibri;&quot;&gt;MCAS mis&lt;/span&gt;&lt;span style=&quot;font-family: Calibri; font-size: 12pt;&quot;&gt;activation&lt;/span&gt;&lt;br&gt;&lt;/div&gt;" style="rounded=0;whiteSpace=wrap;html=1;align=center;" vertex="1" parent="1">
          <mxGeometry x="359" y="50" width="120" height="60" as="geometry" />
        </mxCell>
        <mxCell id="XqtoBZGEsD2tM-cmgYZ9-35" style="edgeStyle=none;html=1;exitX=0.5;exitY=0;exitDx=0;exitDy=0;endArrow=none;endFill=0;" edge="1" parent="1" source="XqtoBZGEsD2tM-cmgYZ9-36">
          <mxGeometry relative="1" as="geometry">
            <mxPoint x="69" y="400" as="targetPoint" />
          </mxGeometry>
        </mxCell>
        <mxCell id="XqtoBZGEsD2tM-cmgYZ9-36" value="&lt;font style=&quot;font-size: 16px;&quot;&gt;Sensor 1 reports low AOA when the actual AOA is high&lt;/font&gt;" style="rounded=0;whiteSpace=wrap;html=1;fillColor=#fff2cc;strokeColor=#d6b656;" vertex="1" parent="1">
          <mxGeometry x="9" y="430" width="120" height="110" as="geometry" />
        </mxCell>
        <mxCell id="XqtoBZGEsD2tM-cmgYZ9-37" value="" style="endArrow=none;html=1;" edge="1" parent="1">
          <mxGeometry width="50" height="50" relative="1" as="geometry">
            <mxPoint x="69" y="400" as="sourcePoint" />
            <mxPoint x="339" y="400" as="targetPoint" />
            <Array as="points">
              <mxPoint x="139" y="400" />
            </Array>
          </mxGeometry>
        </mxCell>
        <mxCell id="XqtoBZGEsD2tM-cmgYZ9-38" style="edgeStyle=none;html=1;exitX=0.5;exitY=0;exitDx=0;exitDy=0;endArrow=none;endFill=0;" edge="1" parent="1" source="XqtoBZGEsD2tM-cmgYZ9-39">
          <mxGeometry relative="1" as="geometry">
            <mxPoint x="209" y="400" as="targetPoint" />
          </mxGeometry>
        </mxCell>
        <mxCell id="XqtoBZGEsD2tM-cmgYZ9-39" value="&lt;span style=&quot;font-size: 16px;&quot;&gt;Sensor 2 reports low AOA when the actual AOA is high&lt;/span&gt;" style="rounded=0;whiteSpace=wrap;html=1;fillColor=#fff2cc;strokeColor=#d6b656;" vertex="1" parent="1">
          <mxGeometry x="149" y="430" width="120" height="110" as="geometry" />
        </mxCell>
        <mxCell id="XqtoBZGEsD2tM-cmgYZ9-40" value="" style="endArrow=none;html=1;" edge="1" parent="1">
          <mxGeometry width="50" height="50" relative="1" as="geometry">
            <mxPoint x="209" y="400" as="sourcePoint" />
            <mxPoint x="208.5" y="370" as="targetPoint" />
          </mxGeometry>
        </mxCell>
        <mxCell id="XqtoBZGEsD2tM-cmgYZ9-41" style="edgeStyle=none;html=1;exitX=0.5;exitY=0;exitDx=0;exitDy=0;endArrow=none;endFill=0;" edge="1" parent="1" source="XqtoBZGEsD2tM-cmgYZ9-42">
          <mxGeometry relative="1" as="geometry">
            <mxPoint x="619" y="400" as="targetPoint" />
          </mxGeometry>
        </mxCell>
        <mxCell id="XqtoBZGEsD2tM-cmgYZ9-42" value="&lt;span style=&quot;font-size: 16px;&quot;&gt;Sensor 2 reports low AOA when the actual AOA is high&lt;/span&gt;" style="rounded=0;whiteSpace=wrap;html=1;fillColor=#fff2cc;strokeColor=#d6b656;" vertex="1" parent="1">
          <mxGeometry x="559" y="430" width="120" height="110" as="geometry" />
        </mxCell>
        <mxCell id="XqtoBZGEsD2tM-cmgYZ9-43" value="" style="endArrow=none;html=1;" edge="1" parent="1">
          <mxGeometry width="50" height="50" relative="1" as="geometry">
            <mxPoint x="479" y="400" as="sourcePoint" />
            <mxPoint x="759" y="400" as="targetPoint" />
            <Array as="points">
              <mxPoint x="689" y="400" />
            </Array>
          </mxGeometry>
        </mxCell>
        <mxCell id="XqtoBZGEsD2tM-cmgYZ9-44" style="edgeStyle=none;html=1;exitX=0.5;exitY=0;exitDx=0;exitDy=0;endArrow=none;endFill=0;" edge="1" parent="1" source="XqtoBZGEsD2tM-cmgYZ9-45">
          <mxGeometry relative="1" as="geometry">
            <mxPoint x="759" y="400" as="targetPoint" />
          </mxGeometry>
        </mxCell>
        <mxCell id="XqtoBZGEsD2tM-cmgYZ9-45" value="&lt;span style=&quot;font-size: 16px;&quot;&gt;Sensor 3 reports low AOA when the actual AOA is high&lt;/span&gt;" style="rounded=0;whiteSpace=wrap;html=1;fillColor=#fff2cc;strokeColor=#d6b656;" vertex="1" parent="1">
          <mxGeometry x="699" y="430" width="120" height="110" as="geometry" />
        </mxCell>
        <mxCell id="XqtoBZGEsD2tM-cmgYZ9-46" value="" style="endArrow=none;html=1;" edge="1" parent="1">
          <mxGeometry width="50" height="50" relative="1" as="geometry">
            <mxPoint x="619" y="400" as="sourcePoint" />
            <mxPoint x="618.5" y="370" as="targetPoint" />
          </mxGeometry>
        </mxCell>
        <mxCell id="XqtoBZGEsD2tM-cmgYZ9-47" style="edgeStyle=none;html=1;exitX=0.5;exitY=0;exitDx=0;exitDy=0;endArrow=none;endFill=0;" edge="1" parent="1" source="XqtoBZGEsD2tM-cmgYZ9-48">
          <mxGeometry relative="1" as="geometry">
            <mxPoint x="339" y="400" as="targetPoint" />
          </mxGeometry>
        </mxCell>
        <mxCell id="XqtoBZGEsD2tM-cmgYZ9-48" value="&lt;font style=&quot;font-size: 16px;&quot;&gt;Sensor 3 reports high AOA when the actual AOA is high&lt;/font&gt;" style="rounded=0;whiteSpace=wrap;html=1;" vertex="1" parent="1">
          <mxGeometry x="279" y="430" width="120" height="110" as="geometry" />
        </mxCell>
        <mxCell id="XqtoBZGEsD2tM-cmgYZ9-49" style="edgeStyle=none;html=1;exitX=0.5;exitY=0;exitDx=0;exitDy=0;endArrow=none;endFill=0;" edge="1" parent="1" source="XqtoBZGEsD2tM-cmgYZ9-50">
          <mxGeometry relative="1" as="geometry">
            <mxPoint x="479" y="400" as="targetPoint" />
          </mxGeometry>
        </mxCell>
        <mxCell id="XqtoBZGEsD2tM-cmgYZ9-50" value="&lt;font style=&quot;font-size: 16px;&quot;&gt;Sensor 1 reports low AOA when the actual AOA is high&lt;/font&gt;" style="rounded=0;whiteSpace=wrap;html=1;fillColor=#fff2cc;strokeColor=#d6b656;" vertex="1" parent="1">
          <mxGeometry x="419" y="430" width="120" height="110" as="geometry" />
        </mxCell>
        <mxCell id="XqtoBZGEsD2tM-cmgYZ9-51" style="edgeStyle=none;html=1;exitX=1;exitY=0.5;exitDx=0;exitDy=0;exitPerimeter=0;endArrow=none;endFill=0;" edge="1" parent="1">
          <mxGeometry relative="1" as="geometry">
            <mxPoint x="419" y="200" as="targetPoint" />
            <mxPoint x="419" y="240" as="sourcePoint" />
          </mxGeometry>
        </mxCell>
        <mxCell id="XqtoBZGEsD2tM-cmgYZ9-52" value="&lt;font style=&quot;font-size: 16px;&quot;&gt;*3&lt;/font&gt;" style="text;html=1;align=center;verticalAlign=middle;resizable=0;points=[];autosize=1;strokeColor=none;fillColor=none;" vertex="1" parent="1">
          <mxGeometry x="199" y="240" width="40" height="30" as="geometry" />
        </mxCell>
      </root>
    </mxGraphModel>
  </diagram>
</mxfile>
